# Blender v2.78 (sub 0) OBJ File: 'tank.blend'
# www.blender.org
mtllib tank.mtl
o Cube
v -1.000000 1.000000 0.271514
v 1.000000 1.000000 0.271514
v -1.000000 1.000000 0.563470
v 1.000000 1.000000 0.563470
v 1.000000 0.168677 0.271514
v 1.000000 0.400707 0.004980
v 1.000000 0.763954 0.004980
v -1.000000 0.168677 0.271514
v -1.000000 0.400708 0.004980
v -1.000000 0.763955 0.004980
v 1.000000 0.168677 0.563470
v 1.000000 0.400708 0.804980
v 1.000000 0.763955 0.804980
v -1.000000 0.168678 0.563470
v -1.000000 0.400708 0.804980
v -1.000000 0.763955 0.804980
v 0.500000 1.000000 0.271514
v 0.500000 1.000000 0.563470
v 0.500000 0.043288 0.674597
v 0.500000 0.133868 0.768878
v 0.500000 0.763955 0.804980
v 0.500000 0.168677 0.271514
v 0.500000 0.400708 0.004980
v 0.500000 0.763955 0.004980
v -0.000102 0.400708 0.804980
v -0.000102 0.763955 0.804980
v -0.000102 1.000000 0.271514
v -0.000102 1.000000 0.563470
v -0.000102 0.168677 0.271514
v -0.000102 0.400708 0.004980
v -0.000102 0.763955 0.004980
v -0.773496 0.146776 1.065749
v -0.454960 0.146776 1.065749
v 0.500000 0.400708 0.804980
v 0.500000 0.168677 0.563470
v 1.540302 0.133868 0.768878
v 1.540302 0.043288 0.674597
v -1.000000 -1.000000 0.271514
v 1.000000 -1.000000 0.271514
v -1.000000 -1.000000 0.563470
v 1.000000 -1.000000 0.563470
v 1.000000 -0.000000 0.271514
v -1.000000 -0.000000 0.271514
v 1.000000 -0.000000 0.563470
v -1.000000 -0.000000 0.563470
v 1.000000 -0.168677 0.271514
v 1.000000 -0.400707 0.004980
v 1.000000 -0.763954 0.004980
v -1.000000 -0.168677 0.271514
v -1.000000 -0.400708 0.004980
v -1.000000 -0.763955 0.004980
v 1.000000 -0.168677 0.563470
v 1.000000 -0.400708 0.804980
v 1.000000 -0.763955 0.804980
v -1.000000 -0.168678 0.563470
v -1.000000 -0.400708 0.804980
v -1.000000 -0.763955 0.804980
v 0.500000 -1.000000 0.271514
v 0.500000 -1.000000 0.563470
v 0.500000 -0.000000 0.674597
v 0.500000 -0.000000 0.271514
v 0.500000 -0.043288 0.674597
v 0.500000 -0.133868 0.768878
v 0.500000 -0.763955 0.804980
v 0.500000 -0.168677 0.271514
v 0.500000 -0.400708 0.004980
v 0.500000 -0.763955 0.004980
v 0.500000 -0.000000 0.803162
v -1.000000 -0.000000 0.803162
v -0.000102 -0.400708 0.804980
v -0.000102 -0.763955 0.804980
v -0.000102 -1.000000 0.271514
v -0.000102 -1.000000 0.563470
v -0.000102 -0.000000 0.271514
v -0.000102 -0.168677 0.271514
v -0.000102 -0.400708 0.004980
v -0.000102 -0.763955 0.004980
v -0.000102 -0.000000 0.803162
v -0.773497 -0.000000 1.065749
v -0.773496 -0.146776 1.065749
v -0.454960 -0.146776 1.065749
v -0.454960 -0.000000 1.065749
v 0.500000 -0.400708 0.804980
v 0.500000 -0.168677 0.563470
v 0.500000 -0.000000 0.563470
v 0.500000 -0.000000 0.768270
v 1.540302 -0.000000 0.674597
v 1.540302 -0.000000 0.768270
v 1.540302 -0.133868 0.768878
v 1.540302 -0.043288 0.674597
vn 0.0000 0.7152 0.6990
vn -1.0000 0.0000 0.0000
vn 0.0000 1.0000 -0.0000
vn 1.0000 0.0000 0.0000
vn -0.0000 0.0000 -1.0000
vn -0.0000 -0.7542 -0.6566
vn 0.0000 0.0000 1.0000
vn -0.0000 -0.7211 0.6928
vn -0.7566 -0.0022 0.6539
vn 0.0000 -0.0045 1.0000
vn 0.0000 -0.7152 0.6990
vn 0.0000 -1.0000 -0.0000
vn -0.0000 0.7542 -0.6566
vn -0.0000 0.7211 0.6928
vn -0.7566 0.0022 0.6539
vn 0.0000 0.0045 1.0000
vn 0.0000 0.7164 0.6977
vn 0.4993 -0.0029 0.8664
vn 0.0000 -0.7164 0.6977
vn 0.4993 0.0029 0.8664
vn 0.0000 0.7211 -0.6928
vn 0.0000 -0.7211 -0.6928
vn 0.0000 0.7486 -0.6630
vn 0.0000 -0.7486 -0.6630
usemtl red
s off
f 26//1 28//1 3//1 16//1
f 10//2 16//2 3//2 1//2
f 17//3 18//3 4//3 2//3
f 13//4 7//4 2//4 4//4
f 44//4 42//4 5//4 11//4
f 11//4 5//4 6//4 12//4
f 12//4 6//4 7//4 13//4
f 43//2 45//2 14//2 8//2
f 8//2 14//2 15//2 9//2
f 9//2 15//2 16//2 10//2
f 74//5 43//5 8//5 29//5
f 29//6 8//6 9//6 30//6
f 30//5 9//5 10//5 31//5
f 6//5 23//5 24//5 7//5
f 5//6 22//6 23//6 6//6
f 42//5 61//5 22//5 5//5
f 12//7 13//7 21//7 34//7
f 11//8 12//8 34//8 35//8
f 44//7 11//7 35//7 85//7
f 27//3 28//3 18//3 17//3
f 13//1 4//1 18//1 21//1
f 25//7 34//7 21//7 26//7
f 14//2 45//2 69//2 15//2
f 15//7 25//7 26//7 16//7
f 1//3 3//3 28//3 27//3
f 23//5 30//5 31//5 24//5
f 22//6 29//6 30//6 23//6
f 61//5 74//5 29//5 22//5
f 21//1 18//1 28//1 26//1
f 33//7 32//7 79//7 82//7
f 15//9 69//9 79//9 32//9
f 34//10 25//10 78//10 68//10
f 20//4 19//4 35//4 34//4
f 19//4 60//4 85//4 35//4
f 86//4 20//4 34//4 68//4
f 71//11 57//11 40//11 73//11
f 51//2 38//2 40//2 57//2
f 58//12 39//12 41//12 59//12
f 54//4 41//4 39//4 48//4
f 44//4 52//4 46//4 42//4
f 52//4 53//4 47//4 46//4
f 53//4 54//4 48//4 47//4
f 43//2 49//2 55//2 45//2
f 49//2 50//2 56//2 55//2
f 50//2 51//2 57//2 56//2
f 74//5 75//5 49//5 43//5
f 75//13 76//13 50//13 49//13
f 76//5 77//5 51//5 50//5
f 47//5 48//5 67//5 66//5
f 46//13 47//13 66//13 65//13
f 42//5 46//5 65//5 61//5
f 53//7 83//7 64//7 54//7
f 52//14 84//14 83//14 53//14
f 44//7 85//7 84//7 52//7
f 72//12 58//12 59//12 73//12
f 54//11 64//11 59//11 41//11
f 70//7 71//7 64//7 83//7
f 55//2 56//2 69//2 45//2
f 56//7 57//7 71//7 70//7
f 38//12 72//12 73//12 40//12
f 66//5 67//5 77//5 76//5
f 65//13 66//13 76//13 75//13
f 61//5 65//5 75//5 74//5
f 64//11 71//11 73//11 59//11
f 81//7 82//7 79//7 80//7
f 56//15 80//15 79//15 69//15
f 83//16 68//16 78//16 70//16
f 63//4 83//4 84//4 62//4
f 62//4 84//4 85//4 60//4
f 86//4 68//4 83//4 63//4
usemtl glass
f 25//17 15//17 32//17 33//17
f 33//18 82//18 78//18 25//18
f 70//19 81//19 80//19 56//19
f 81//20 70//20 78//20 82//20
usemtl darkgrey
f 19//21 20//21 36//21 37//21
f 36//4 88//4 87//4 37//4
f 60//5 19//5 37//5 87//5
f 20//10 86//10 88//10 36//10
f 62//22 90//22 89//22 63//22
f 89//4 90//4 87//4 88//4
f 60//5 87//5 90//5 62//5
f 63//16 89//16 88//16 86//16
usemtl propeler
f 31//23 10//23 1//23 27//23
f 7//23 24//23 17//23 2//23
f 24//23 31//23 27//23 17//23
f 77//24 72//24 38//24 51//24
f 48//24 39//24 58//24 67//24
f 67//24 58//24 72//24 77//24
