# Blender v2.78 (sub 0) OBJ File: 'tiles.blend'
# www.blender.org
mtllib tiles.mtl
o tile8_Cube
v -0.500000 -0.500000 0.000000
v -0.379925 -0.379925 0.971312
v -0.500000 0.500000 0.000000
v -0.379925 0.379925 0.971312
v 0.500000 -0.500000 0.000000
v 0.379925 -0.379925 0.971312
v 0.500000 0.500000 0.000000
v 0.379925 0.379925 0.971312
v -0.500000 -0.500000 0.547689
v -0.379925 -0.379925 0.789773
v -0.379925 0.379925 0.789773
v -0.500000 0.500000 0.547689
v 0.379925 0.379925 0.789773
v 0.500000 0.500000 0.547689
v 0.379925 -0.379925 0.789773
v 0.500000 -0.500000 0.547689
v -0.500000 0.500000 0.082153
v 0.500000 0.500000 0.082153
v 0.500000 -0.500000 0.082153
v -0.500000 -0.500000 0.082155
v -0.500000 -0.500000 0.477859
v -0.500000 0.500000 0.477859
v 0.500000 0.500000 0.477859
v 0.500000 -0.500000 0.477859
v -0.417845 -0.500000 0.082153
v -0.417845 -0.500000 0.477859
v 0.417845 -0.500000 0.477859
v 0.417845 -0.500000 0.082153
v 0.500000 -0.417845 0.477859
v 0.500000 -0.417845 0.082153
v 0.500000 0.417845 0.082153
v 0.500000 0.417845 0.477859
v 0.417845 0.500000 0.477859
v 0.417845 0.500000 0.082153
v -0.417845 0.500000 0.477859
v -0.417845 0.500000 0.082153
v -0.500000 0.417845 0.082154
v -0.500000 0.417845 0.477859
v -0.500000 -0.417845 0.082155
v -0.500000 -0.417845 0.477859
v 0.417845 -0.417845 0.082153
v -0.417845 -0.417845 0.082153
v 0.417845 -0.417845 0.477859
v -0.417845 -0.417845 0.477859
v -0.417845 0.417845 0.477859
v 0.417845 0.417845 0.477859
v -0.417845 0.417845 0.082153
v 0.417845 0.417845 0.082153
v 0.417845 0.417845 0.477859
v 0.417845 -0.417845 0.477859
v 0.417845 0.417845 0.082153
v 0.417845 -0.417845 0.082153
v -0.417845 -0.417845 0.082155
v -0.417845 0.417845 0.082154
v -0.417845 -0.417845 0.477859
v -0.417845 0.417845 0.477859
vn 0.0000 -0.8959 0.4443
vn 0.8959 0.0000 0.4443
vn 0.0000 0.8959 0.4443
vn -0.8959 0.0000 0.4443
vn 0.0000 -1.0000 0.0000
vn 0.0000 1.0000 0.0000
vn 1.0000 0.0000 0.0000
vn -1.0000 0.0000 0.0000
vn 0.0000 0.0000 1.0000
vn 0.0000 0.0000 -1.0000
usemtl blue
s off
f 16//1 15//1 10//1 9//1
f 14//2 13//2 15//2 16//2
f 12//3 11//3 13//3 14//3
f 9//4 10//4 11//4 12//4
f 41//5 43//5 44//5 42//5
f 47//6 45//6 46//6 48//6
f 51//7 49//7 50//7 52//7
f 53//8 55//8 56//8 54//8
usemtl lightgrey
f 10//8 2//8 4//8 11//8
f 11//6 4//6 8//6 13//6
f 13//7 8//7 6//7 15//7
f 15//5 6//5 2//5 10//5
f 8//9 4//9 2//9 6//9
usemtl darkgrey
f 20//8 21//8 40//8 39//8
f 24//5 16//5 9//5 21//5 26//5 27//5
f 23//7 14//7 16//7 24//7 29//7 32//7
f 22//6 12//6 14//6 23//6 33//6 35//6
f 21//8 9//8 12//8 22//8 38//8 40//8
f 1//8 20//8 39//8 37//8 17//8 3//8
f 3//6 17//6 36//6 34//6 18//6 7//6
f 7//7 18//7 31//7 30//7 19//7 5//7
f 5//5 19//5 28//5 25//5 20//5 1//5
f 17//6 22//6 35//6 36//6
f 18//7 23//7 32//7 31//7
f 19//5 24//5 27//5 28//5
f 25//5 26//5 21//5 20//5
f 33//8 34//8 48//8 46//8
f 30//7 29//7 24//7 19//7
f 40//10 38//10 56//10 55//10
f 34//6 33//6 23//6 18//6
f 28//8 27//8 43//8 41//8
f 37//8 38//8 22//8 17//8
f 39//6 40//6 55//6 53//6
f 35//10 33//10 46//10 45//10
f 27//10 26//10 44//10 43//10
f 36//7 35//7 45//7 47//7
f 34//9 36//9 47//9 48//9
f 26//7 25//7 42//7 44//7
f 25//9 28//9 41//9 42//9
f 29//6 30//6 52//6 50//6
f 32//10 29//10 50//10 49//10
f 31//5 32//5 49//5 51//5
f 38//5 37//5 54//5 56//5
f 37//9 39//9 53//9 54//9
f 30//9 31//9 51//9 52//9
o tile4_Plane.002
v -0.500000 -0.500000 0.000000
v 0.500000 -0.500000 0.000000
v -0.500000 0.500000 0.000000
v 0.500000 0.500000 0.000000
v -0.500000 -0.075000 0.000000
v -0.500000 0.075000 0.000000
v 0.500000 0.075000 0.000000
v 0.500000 -0.075000 0.000000
vn 0.0000 0.0000 1.0000
usemtl blue
s off
f 62//11 63//11 60//11 59//11
f 57//11 58//11 64//11 61//11
usemtl darkred
f 63//11 62//11 61//11 64//11
o tile3_Plane.003
v -0.500000 -0.500000 0.000000
v 0.500000 -0.500000 0.000000
v -0.500000 0.500000 0.000000
v 0.500000 0.500000 0.000000
v 0.075000 -0.500000 0.000000
v -0.075000 -0.500000 0.000000
v -0.500000 -0.075000 0.000000
v -0.500000 0.075000 0.000000
vn 0.0000 0.0000 1.0000
usemtl blue
s off
f 65//12 70//12 71//12
f 72//12 69//12 66//12 67//12
usemtl lightgrey
f 67//12 66//12 68//12
usemtl darkred
f 71//12 70//12 69//12 72//12
o tile2_Plane
v -0.500000 -0.500000 0.000000
v 0.500000 -0.500000 0.000000
v -0.500000 0.500000 0.000000
v 0.500000 0.500000 0.000000
vn 0.0000 0.0000 1.0000
usemtl lightgrey
s off
f 73//13 74//13 76//13 75//13
o tile1
v -0.500000 -0.500000 0.000000
v -0.300000 -0.333996 0.000000
v 0.500000 -0.500000 0.000000
v 0.300000 -0.333996 0.000000
v -0.300000 0.076233 0.000000
v 0.300000 0.076233 0.000000
v 0.000000 -0.044069 0.000000
v -0.500000 0.500000 0.000000
v 0.000000 0.366159 0.000000
v 0.500000 0.500000 0.000000
v -0.300000 0.500000 0.000000
v 0.300000 0.500000 0.000000
v -0.300000 -0.500000 0.000000
v 0.300000 -0.500000 0.000000
v 0.000000 0.500000 0.000000
v -0.500000 0.076230 0.000000
v 0.500000 0.076230 0.000000
v -0.500000 -0.334000 0.000000
v 0.500000 -0.334000 0.000000
vn 0.0000 0.0000 1.0000
usemtl lightgrey
s 1
f 85//14 91//14 87//14 81//14
f 88//14 91//14 85//14 82//14
f 87//14 84//14 92//14 81//14
f 90//14 80//14 78//14 89//14
f 78//14 83//14 81//14
f 83//14 80//14 82//14
f 81//14 83//14 82//14
f 81//14 92//14 94//14 78//14
f 93//14 82//14 80//14 95//14
f 88//14 82//14 93//14 86//14
f 78//14 94//14 77//14 89//14
f 95//14 80//14 90//14 79//14
usemtl blue
f 81//14 82//14 85//14
f 78//14 80//14 83//14
o tile0_Plane.001
v -0.500000 -0.500000 0.000000
v 0.500000 -0.500000 0.000000
v -0.500000 0.500000 0.000000
v 0.500000 0.500000 0.000000
v -0.151736 0.366323 0.000000
v -0.366323 0.151736 0.000000
v -0.366323 -0.151736 0.000000
v -0.151736 -0.366323 0.000000
v 0.151736 -0.366323 0.000000
v 0.366323 -0.151736 0.000000
v 0.366323 0.151736 0.000000
v 0.151736 0.366323 0.000000
v 0.100000 0.100000 0.000000
v -0.100000 0.100000 0.000000
v 0.100000 -0.100000 0.000000
v -0.100000 -0.100000 0.000000
vn 0.0000 0.0000 1.0000
usemtl darkred
s off
f 110//15 108//15 109//15 111//15
usemtl blue
f 101//15 109//15 100//15
f 100//15 109//15 108//15 107//15
f 106//15 107//15 108//15
f 106//15 108//15 110//15 105//15
f 104//15 105//15 110//15
f 103//15 104//15 110//15 111//15
f 102//15 103//15 111//15
f 102//15 111//15 109//15 101//15
usemtl lightgrey
f 101//15 100//15 98//15
f 98//15 96//15 102//15 101//15
f 102//15 96//15 103//15
f 96//15 97//15 104//15 103//15
f 104//15 97//15 105//15
f 97//15 99//15 106//15 105//15
f 106//15 99//15 107//15
f 99//15 98//15 100//15 107//15
