# Blender v2.78 (sub 0) OBJ File: 'tiles.blend'
# www.blender.org
mtllib tiles.mtl
o tile9_Cube.001
v -0.500000 -0.500000 1.000000
v -0.500000 0.500000 1.000000
v 0.500000 -0.500000 0.000000
v 0.500000 -0.500000 1.000000
v 0.500000 0.500000 0.000000
v 0.500000 0.500000 1.000000
v 0.500000 0.500000 0.250000
v 0.500000 -0.500000 0.250000
v -0.500000 0.000000 1.000000
v 0.000000 -0.500000 1.000000
v 0.000000 0.500000 1.000000
v 0.500000 0.000000 0.950000
v 0.500000 0.000009 0.300000
v 0.500000 0.000000 0.000000
v 0.500000 0.000000 1.000000
v 0.500000 0.000009 0.250000
v 0.500000 -0.450000 0.950000
v 0.500000 0.450000 0.950000
v 0.500000 0.450000 0.300000
v 0.500000 -0.450000 0.300000
vn 1.0000 0.0000 0.0000
vn 0.0000 0.0000 1.0000
usemtl lightgrey
s off
f 17//1 12//1 15//1 4//1
f 18//1 19//1 7//1 6//1
f 20//1 17//1 4//1 8//1
f 19//1 13//1 16//1 7//1
f 12//1 18//1 6//1 15//1
f 13//1 20//1 8//1 16//1
usemtl black
f 5//1 7//1 14//1
f 10//2 9//2 1//2
f 15//2 11//2 2//2 4//2
f 3//1 16//1 8//1
usemtl yellow
f 6//2 11//2 15//2
f 4//2 2//2 9//2 10//2
f 14//1 7//1 16//1 3//1
usemtl blue
f 20//1 13//1 19//1 18//1 12//1 17//1
o tile8_Cube
v -0.500000 -0.500000 0.000000
v -0.379925 -0.379925 0.971312
v -0.500000 0.500000 0.000000
v -0.379925 0.379925 0.971312
v 0.500000 -0.500000 0.000000
v 0.379925 -0.379925 0.971312
v 0.500000 0.500000 0.000000
v 0.379925 0.379925 0.971312
v -0.500000 -0.500000 0.547689
v -0.379925 -0.379925 0.789773
v -0.379925 0.379925 0.789773
v -0.500000 0.500000 0.547689
v 0.379925 0.379925 0.789773
v 0.500000 0.500000 0.547689
v 0.379925 -0.379925 0.789773
v 0.500000 -0.500000 0.547689
v -0.500000 0.500000 0.082153
v 0.500000 0.500000 0.082153
v 0.500000 -0.500000 0.082153
v -0.500000 -0.500000 0.082155
v -0.500000 -0.500000 0.477859
v -0.500000 0.500000 0.477859
v 0.500000 0.500000 0.477859
v 0.500000 -0.500000 0.477859
v -0.417845 -0.500000 0.082153
v -0.417845 -0.500000 0.477859
v 0.417845 -0.500000 0.477859
v 0.417845 -0.500000 0.082153
v 0.500000 -0.417845 0.477859
v 0.500000 -0.417845 0.082153
v 0.500000 0.417845 0.082153
v 0.500000 0.417845 0.477859
v 0.417845 0.500000 0.477859
v 0.417845 0.500000 0.082153
v -0.417845 0.500000 0.477859
v -0.417845 0.500000 0.082153
v -0.500000 0.417845 0.082154
v -0.500000 0.417845 0.477859
v -0.500000 -0.417845 0.082155
v -0.500000 -0.417845 0.477859
v 0.417845 -0.417845 0.082153
v -0.417845 -0.417845 0.082153
v 0.417845 -0.417845 0.477859
v -0.417845 -0.417845 0.477859
v -0.417845 0.417845 0.082153
v 0.417845 0.417845 0.477859
v 0.417845 0.417845 0.082153
v -0.417845 0.417845 0.477859
vn 0.0000 -0.8959 0.4443
vn 0.8959 0.0000 0.4443
vn 0.0000 0.8959 0.4443
vn -0.8959 0.0000 0.4443
vn 0.0000 -1.0000 0.0000
vn 0.0000 1.0000 0.0000
vn 1.0000 0.0000 0.0000
vn -1.0000 0.0000 0.0000
vn 0.0000 0.0000 1.0000
vn 0.0000 0.0000 -1.0000
usemtl blue
s off
f 36//3 35//3 30//3 29//3
f 34//4 33//4 35//4 36//4
f 32//5 31//5 33//5 34//5
f 29//6 30//6 31//6 32//6
f 61//7 63//7 64//7 62//7
f 65//8 68//8 66//8 67//8
f 67//9 66//9 63//9 61//9
f 62//10 64//10 68//10 65//10
usemtl lightgrey
f 30//10 22//10 24//10 31//10
f 31//8 24//8 28//8 33//8
f 33//9 28//9 26//9 35//9
f 35//7 26//7 22//7 30//7
f 28//11 24//11 22//11 26//11
usemtl darkgrey
f 40//10 41//10 60//10 59//10
f 44//7 36//7 29//7 41//7 46//7 47//7
f 43//9 34//9 36//9 44//9 49//9 52//9
f 42//8 32//8 34//8 43//8 53//8 55//8
f 41//10 29//10 32//10 42//10 58//10 60//10
f 21//10 40//10 59//10 57//10 37//10 23//10
f 23//8 37//8 56//8 54//8 38//8 27//8
f 27//9 38//9 51//9 50//9 39//9 25//9
f 25//7 39//7 48//7 45//7 40//7 21//7
f 37//8 42//8 55//8 56//8
f 38//9 43//9 52//9 51//9
f 39//7 44//7 47//7 48//7
f 45//7 46//7 41//7 40//7
f 53//10 54//10 67//10 66//10
f 50//9 49//9 44//9 39//9
f 60//12 58//12 68//12 64//12
f 54//8 53//8 43//8 38//8
f 48//10 47//10 63//10 61//10
f 57//10 58//10 42//10 37//10
f 59//8 60//8 64//8 62//8
f 55//12 53//12 66//12 68//12
f 47//12 46//12 64//12 63//12
f 56//9 55//9 68//9 65//9
f 54//11 56//11 65//11 67//11
f 46//9 45//9 62//9 64//9
f 45//11 48//11 61//11 62//11
f 49//8 50//8 61//8 63//8
f 52//12 49//12 63//12 66//12
f 51//7 52//7 66//7 67//7
f 58//7 57//7 65//7 68//7
f 57//11 59//11 62//11 65//11
f 50//11 51//11 67//11 61//11
o tile4_Plane.002
v -0.500000 -0.500000 0.000000
v 0.500000 -0.500000 0.000000
v -0.500000 0.500000 0.000000
v 0.500000 0.500000 0.000000
v -0.500000 -0.075000 0.000000
v -0.500000 0.075000 0.000000
v 0.500000 0.075000 0.000000
v 0.500000 -0.075000 0.000000
vn 0.0000 0.0000 1.0000
usemtl blue
s off
f 74//13 75//13 72//13 71//13
f 69//13 70//13 76//13 73//13
usemtl darkred
f 75//13 74//13 73//13 76//13
o tile3_Plane.003
v -0.500000 -0.500000 0.000000
v 0.500000 -0.500000 0.000000
v -0.500000 0.500000 0.000000
v 0.500000 0.500000 0.000000
v 0.075000 -0.500000 0.000000
v -0.075000 -0.500000 0.000000
v -0.500000 -0.075000 0.000000
v -0.500000 0.075000 0.000000
vn 0.0000 0.0000 1.0000
usemtl blue
s off
f 77//14 82//14 83//14
f 84//14 81//14 78//14 79//14
usemtl lightgrey
f 79//14 78//14 80//14
usemtl darkred
f 83//14 82//14 81//14 84//14
o tile2_Plane
v -0.500000 -0.500000 0.000000
v 0.500000 -0.500000 0.000000
v -0.500000 0.500000 0.000000
v 0.500000 0.500000 0.000000
vn 0.0000 0.0000 1.0000
usemtl lightgrey
s off
f 85//15 86//15 88//15 87//15
o tile1
v -0.500000 -0.500000 0.000000
v -0.300000 -0.333996 0.000000
v 0.500000 -0.500000 0.000000
v 0.300000 -0.333996 0.000000
v -0.300000 0.076233 0.000000
v 0.300000 0.076233 0.000000
v 0.000000 -0.044069 0.000000
v -0.500000 0.500000 0.000000
v 0.000000 0.366159 0.000000
v 0.500000 0.500000 0.000000
v -0.300000 0.500000 0.000000
v 0.300000 0.500000 0.000000
v -0.300000 -0.500000 0.000000
v 0.300000 -0.500000 0.000000
v 0.000000 0.500000 0.000000
v -0.500000 0.076230 0.000000
v 0.500000 0.076230 0.000000
v -0.500000 -0.334000 0.000000
v 0.500000 -0.334000 0.000000
vn 0.0000 0.0000 1.0000
usemtl lightgrey
s 1
f 97//16 103//16 99//16 93//16
f 100//16 103//16 97//16 94//16
f 99//16 96//16 104//16 93//16
f 102//16 92//16 90//16 101//16
f 90//16 95//16 93//16
f 95//16 92//16 94//16
f 93//16 95//16 94//16
f 93//16 104//16 106//16 90//16
f 105//16 94//16 92//16 107//16
f 100//16 94//16 105//16 98//16
f 90//16 106//16 89//16 101//16
f 107//16 92//16 102//16 91//16
usemtl blue
f 93//16 94//16 97//16
f 90//16 92//16 95//16
o tile0_Plane.001
v -0.500000 -0.500000 0.000000
v 0.500000 -0.500000 0.000000
v -0.500000 0.500000 0.000000
v 0.500000 0.500000 0.000000
v -0.151736 0.366323 0.000000
v -0.366323 0.151736 0.000000
v -0.366323 -0.151736 0.000000
v -0.151736 -0.366323 0.000000
v 0.151736 -0.366323 0.000000
v 0.366323 -0.151736 0.000000
v 0.366323 0.151736 0.000000
v 0.151736 0.366323 0.000000
v 0.100000 0.100000 0.000000
v -0.100000 0.100000 0.000000
v 0.100000 -0.100000 0.000000
v -0.100000 -0.100000 0.000000
vn 0.0000 0.0000 1.0000
usemtl darkred
s off
f 122//17 120//17 121//17 123//17
usemtl blue
f 113//17 121//17 112//17
f 112//17 121//17 120//17 119//17
f 118//17 119//17 120//17
f 118//17 120//17 122//17 117//17
f 116//17 117//17 122//17
f 115//17 116//17 122//17 123//17
f 114//17 115//17 123//17
f 114//17 123//17 121//17 113//17
usemtl lightgrey
f 113//17 112//17 110//17
f 110//17 108//17 114//17 113//17
f 114//17 108//17 115//17
f 108//17 109//17 116//17 115//17
f 116//17 109//17 117//17
f 109//17 111//17 118//17 117//17
f 118//17 111//17 119//17
f 111//17 110//17 112//17 119//17
