# Blender v2.78 (sub 0) OBJ File: 'tiles.blend'
# www.blender.org
mtllib tiles.mtl
o tile8_Cube
v -0.500000 -0.500000 0.000000
v -0.379925 -0.379925 0.971312
v -0.500000 0.500000 0.000000
v -0.379925 0.379925 0.971312
v 0.500000 -0.500000 0.000000
v 0.379925 -0.379925 0.971312
v 0.500000 0.500000 0.000000
v 0.379925 0.379925 0.971312
v -0.500000 -0.500000 0.547689
v -0.379925 -0.379925 0.789773
v -0.379925 0.379925 0.789773
v -0.500000 0.500000 0.547689
v 0.379925 0.379925 0.789773
v 0.500000 0.500000 0.547689
v 0.379925 -0.379925 0.789773
v 0.500000 -0.500000 0.547689
vn 0.0000 0.0000 -1.0000
vn 0.0000 -1.0000 0.0000
vn 0.0000 -0.8959 0.4443
vn 1.0000 0.0000 0.0000
vn 0.8959 0.0000 0.4443
vn 0.0000 1.0000 0.0000
vn 0.0000 0.8959 0.4443
vn -1.0000 0.0000 0.0000
vn -0.8959 0.0000 0.4443
vn 0.0000 0.0000 1.0000
usemtl blue
s off
f 3//1 7//1 5//1 1//1
f 5//2 16//2 9//2 1//2
f 16//3 15//3 10//3 9//3
f 7//4 14//4 16//4 5//4
f 14//5 13//5 15//5 16//5
f 3//6 12//6 14//6 7//6
f 12//7 11//7 13//7 14//7
f 1//8 9//8 12//8 3//8
f 9//9 10//9 11//9 12//9
usemtl lightgrey
f 10//8 2//8 4//8 11//8
f 11//6 4//6 8//6 13//6
f 13//4 8//4 6//4 15//4
f 15//2 6//2 2//2 10//2
f 8//10 4//10 2//10 6//10
o tile4_Plane.002
v -0.500000 -0.500000 0.000000
v 0.500000 -0.500000 0.000000
v -0.500000 0.500000 0.000000
v 0.500000 0.500000 0.000000
v -0.500000 -0.075000 0.000000
v -0.500000 0.075000 0.000000
v 0.500000 0.075000 0.000000
v 0.500000 -0.075000 0.000000
vn 0.0000 0.0000 1.0000
usemtl blue
s off
f 22//11 23//11 20//11 19//11
f 17//11 18//11 24//11 21//11
usemtl darkred
f 23//11 22//11 21//11 24//11
o tile3_Plane.003
v -0.500000 -0.500000 0.000000
v 0.500000 -0.500000 0.000000
v -0.500000 0.500000 0.000000
v 0.500000 0.500000 0.000000
v 0.075000 -0.500000 0.000000
v -0.075000 -0.500000 0.000000
v -0.500000 -0.075000 0.000000
v -0.500000 0.075000 0.000000
vn 0.0000 0.0000 1.0000
usemtl blue
s off
f 25//12 30//12 31//12
f 32//12 29//12 26//12 27//12
usemtl lightgrey
f 27//12 26//12 28//12
usemtl darkred
f 31//12 30//12 29//12 32//12
o tile2_Plane
v -0.500000 -0.500000 0.000000
v 0.500000 -0.500000 0.000000
v -0.500000 0.500000 0.000000
v 0.500000 0.500000 0.000000
vn 0.0000 0.0000 1.0000
usemtl lightgrey
s off
f 33//13 34//13 36//13 35//13
o tile1
v -0.500000 -0.500000 0.000000
v -0.300000 -0.333996 0.000000
v 0.500000 -0.500000 0.000000
v 0.300000 -0.333996 0.000000
v -0.300000 0.076233 0.000000
v 0.300000 0.076233 0.000000
v 0.000000 -0.044069 0.000000
v -0.500000 0.500000 0.000000
v 0.000000 0.366159 0.000000
v 0.500000 0.500000 0.000000
vn 0.0000 0.0000 1.0000
usemtl lightgrey
s 1
f 37//14 39//14 38//14
f 40//14 38//14 39//14
f 38//14 41//14 37//14
f 40//14 39//14 42//14
f 38//14 43//14 41//14
f 43//14 40//14 42//14
f 41//14 43//14 42//14
f 44//14 37//14 41//14
f 41//14 45//14 44//14
f 45//14 42//14 46//14
f 45//14 46//14 44//14
f 39//14 46//14 42//14
usemtl blue
f 41//14 42//14 45//14
f 38//14 40//14 43//14
o tile0_Plane.001
v -0.500000 -0.500000 0.000000
v 0.500000 -0.500000 0.000000
v -0.500000 0.500000 0.000000
v 0.500000 0.500000 0.000000
v -0.151736 0.366323 0.000000
v -0.366323 0.151736 0.000000
v -0.366323 -0.151736 0.000000
v -0.151736 -0.366323 0.000000
v 0.151736 -0.366323 0.000000
v 0.366323 -0.151736 0.000000
v 0.366323 0.151736 0.000000
v 0.151736 0.366323 0.000000
v 0.100000 0.100000 0.000000
v -0.100000 0.100000 0.000000
v 0.100000 -0.100000 0.000000
v -0.100000 -0.100000 0.000000
vn 0.0000 0.0000 1.0000
usemtl darkred
s off
f 61//15 59//15 60//15 62//15
usemtl blue
f 52//15 60//15 51//15
f 51//15 60//15 59//15 58//15
f 57//15 58//15 59//15
f 57//15 59//15 61//15 56//15
f 55//15 56//15 61//15
f 54//15 55//15 61//15 62//15
f 53//15 54//15 62//15
f 53//15 62//15 60//15 52//15
usemtl lightgrey
f 52//15 51//15 49//15
f 49//15 47//15 53//15 52//15
f 53//15 47//15 54//15
f 47//15 48//15 55//15 54//15
f 55//15 48//15 56//15
f 48//15 50//15 57//15 56//15
f 57//15 50//15 58//15
f 50//15 49//15 51//15 58//15
