# Blender v2.78 (sub 0) OBJ File: 'tiles.blend'
# www.blender.org
mtllib tiles.mtl
o tile8_Cube
v -0.500000 -0.500000 0.000000
v -0.379925 -0.379925 0.971312
v -0.500000 0.500000 0.000000
v -0.379925 0.379925 0.971312
v 0.500000 -0.500000 0.000000
v 0.379925 -0.379925 0.971312
v 0.500000 0.500000 0.000000
v 0.379925 0.379925 0.971312
v -0.500000 -0.500000 0.547689
v -0.379925 -0.379925 0.789773
v -0.379925 0.379925 0.789773
v -0.500000 0.500000 0.547689
v 0.379925 0.379925 0.789773
v 0.500000 0.500000 0.547689
v 0.379925 -0.379925 0.789773
v 0.500000 -0.500000 0.547689
v -0.500000 0.500000 0.082153
v 0.500000 0.500000 0.082153
v 0.500000 -0.500000 0.082153
v -0.500000 -0.500000 0.082153
v -0.500000 -0.500000 0.477859
v -0.500000 0.500000 0.477859
v 0.500000 0.500000 0.477859
v 0.500000 -0.500000 0.477859
vn -1.0000 0.0000 0.0000
vn 0.0000 -0.8959 0.4443
vn 0.8959 0.0000 0.4443
vn 0.0000 0.8959 0.4443
vn -0.8959 0.0000 0.4443
vn 0.0000 1.0000 0.0000
vn 1.0000 0.0000 0.0000
vn 0.0000 -1.0000 0.0000
vn 0.0000 0.0000 1.0000
usemtl blue
s off
f 20//1 21//1 22//1 17//1
f 16//2 15//2 10//2 9//2
f 14//3 13//3 15//3 16//3
f 12//4 11//4 13//4 14//4
f 9//5 10//5 11//5 12//5
f 17//6 22//6 23//6 18//6
f 18//7 23//7 24//7 19//7
f 19//8 24//8 21//8 20//8
usemtl lightgrey
f 10//1 2//1 4//1 11//1
f 11//6 4//6 8//6 13//6
f 13//7 8//7 6//7 15//7
f 15//8 6//8 2//8 10//8
f 8//9 4//9 2//9 6//9
usemtl darkgrey
f 24//8 16//8 9//8 21//8
f 23//7 14//7 16//7 24//7
f 22//6 12//6 14//6 23//6
f 21//1 9//1 12//1 22//1
f 1//1 20//1 17//1 3//1
f 3//6 17//6 18//6 7//6
f 7//7 18//7 19//7 5//7
f 5//8 19//8 20//8 1//8
o tile4_Plane.002
v -0.500000 -0.500000 0.000000
v 0.500000 -0.500000 0.000000
v -0.500000 0.500000 0.000000
v 0.500000 0.500000 0.000000
v -0.500000 -0.075000 0.000000
v -0.500000 0.075000 0.000000
v 0.500000 0.075000 0.000000
v 0.500000 -0.075000 0.000000
vn 0.0000 0.0000 1.0000
usemtl blue
s off
f 30//10 31//10 28//10 27//10
f 25//10 26//10 32//10 29//10
usemtl darkred
f 31//10 30//10 29//10 32//10
o tile3_Plane.003
v -0.500000 -0.500000 0.000000
v 0.500000 -0.500000 0.000000
v -0.500000 0.500000 0.000000
v 0.500000 0.500000 0.000000
v 0.075000 -0.500000 0.000000
v -0.075000 -0.500000 0.000000
v -0.500000 -0.075000 0.000000
v -0.500000 0.075000 0.000000
vn 0.0000 0.0000 1.0000
usemtl blue
s off
f 33//11 38//11 39//11
f 40//11 37//11 34//11 35//11
usemtl lightgrey
f 35//11 34//11 36//11
usemtl darkred
f 39//11 38//11 37//11 40//11
o tile2_Plane
v -0.500000 -0.500000 0.000000
v 0.500000 -0.500000 0.000000
v -0.500000 0.500000 0.000000
v 0.500000 0.500000 0.000000
vn 0.0000 0.0000 1.0000
usemtl lightgrey
s off
f 41//12 42//12 44//12 43//12
o tile1
v -0.500000 -0.500000 0.000000
v -0.300000 -0.333996 0.000000
v 0.500000 -0.500000 0.000000
v 0.300000 -0.333996 0.000000
v -0.300000 0.076233 0.000000
v 0.300000 0.076233 0.000000
v 0.000000 -0.044069 0.000000
v -0.500000 0.500000 0.000000
v 0.000000 0.366159 0.000000
v 0.500000 0.500000 0.000000
v -0.300000 0.500000 0.000000
v 0.300000 0.500000 0.000000
v -0.300000 -0.500000 0.000000
v 0.300000 -0.500000 0.000000
v 0.000000 0.500000 0.000000
v -0.500000 0.076230 0.000000
v 0.500000 0.076230 0.000000
v -0.500000 -0.334000 0.000000
v 0.500000 -0.334000 0.000000
vn 0.0000 0.0000 1.0000
usemtl lightgrey
s 1
f 53//13 59//13 55//13 49//13
f 56//13 59//13 53//13 50//13
f 55//13 52//13 60//13 49//13
f 58//13 48//13 46//13 57//13
f 46//13 51//13 49//13
f 51//13 48//13 50//13
f 49//13 51//13 50//13
f 49//13 60//13 62//13 46//13
f 61//13 50//13 48//13 63//13
f 56//13 50//13 61//13 54//13
f 46//13 62//13 45//13 57//13
f 63//13 48//13 58//13 47//13
usemtl blue
f 49//13 50//13 53//13
f 46//13 48//13 51//13
o tile0_Plane.001
v -0.500000 -0.500000 0.000000
v 0.500000 -0.500000 0.000000
v -0.500000 0.500000 0.000000
v 0.500000 0.500000 0.000000
v -0.151736 0.366323 0.000000
v -0.366323 0.151736 0.000000
v -0.366323 -0.151736 0.000000
v -0.151736 -0.366323 0.000000
v 0.151736 -0.366323 0.000000
v 0.366323 -0.151736 0.000000
v 0.366323 0.151736 0.000000
v 0.151736 0.366323 0.000000
v 0.100000 0.100000 0.000000
v -0.100000 0.100000 0.000000
v 0.100000 -0.100000 0.000000
v -0.100000 -0.100000 0.000000
vn 0.0000 0.0000 1.0000
usemtl darkred
s off
f 78//14 76//14 77//14 79//14
usemtl blue
f 69//14 77//14 68//14
f 68//14 77//14 76//14 75//14
f 74//14 75//14 76//14
f 74//14 76//14 78//14 73//14
f 72//14 73//14 78//14
f 71//14 72//14 78//14 79//14
f 70//14 71//14 79//14
f 70//14 79//14 77//14 69//14
usemtl lightgrey
f 69//14 68//14 66//14
f 66//14 64//14 70//14 69//14
f 70//14 64//14 71//14
f 64//14 65//14 72//14 71//14
f 72//14 65//14 73//14
f 65//14 67//14 74//14 73//14
f 74//14 67//14 75//14
f 67//14 66//14 68//14 75//14
